<svg width="100" height="100" viewBox="0 0 100 100" fill="none" xmlns="http://www.w3.org/2000/svg">
<path d="M50.0002 0C22.3894 0 0 22.9521 0 51.2657C0 73.9166 14.3266 93.1331 34.1933 99.9119C36.692 100.386 37.6097 98.7998 37.6097 97.4457C37.6097 96.2234 37.563 92.1846 37.5418 87.901C23.6313 91.0021 20.6961 81.8522 20.6961 81.8522C18.4217 75.9266 15.1446 74.3513 15.1446 74.3513C10.6083 71.1693 15.4865 71.2344 15.4865 71.2344C20.5075 71.5963 23.1513 76.5176 23.1513 76.5176C27.6108 84.3551 34.8482 82.0891 37.7014 80.7795C38.15 77.4657 39.4461 75.2044 40.8758 73.9243C29.7703 72.6276 18.0954 68.2318 18.0954 48.5883C18.0954 42.9915 20.0487 38.418 23.2474 34.828C22.7282 33.5365 21.0169 28.3225 23.7317 21.261C23.7317 21.261 27.9304 19.8831 37.4853 26.516C41.4734 25.3798 45.7509 24.8104 50.0002 24.7911C54.2495 24.8104 58.5301 25.3798 62.526 26.516C72.0696 19.8831 76.2624 21.261 76.2624 21.261C78.9839 28.3225 77.2718 33.5365 76.7526 34.828C79.9584 38.418 81.8983 42.9911 81.8983 48.5883C81.8983 68.2784 70.2014 72.6143 59.0677 73.8833C60.861 75.4742 62.459 78.5943 62.459 83.3769C62.459 90.2362 62.4009 95.757 62.4009 97.4457C62.4009 98.8099 63.3009 100.408 65.8357 99.9051C85.6915 93.1186 100 73.909 100 51.2657C100 22.9521 77.6137 0 50.0002 0Z" fill="black"/>
<path d="M18.7268 73.0293C18.617 73.2838 18.2256 73.3602 17.8699 73.1857C17.5072 73.0184 17.3033 72.671 17.4209 72.4153C17.5288 72.1532 17.9201 72.08 18.2821 72.2561C18.6456 72.423 18.8526 72.7736 18.7268 73.0293M21.1863 75.2792C20.9479 75.506 20.4816 75.4007 20.1651 75.0424C19.8381 74.685 19.7769 74.2073 20.0189 73.9769C20.2647 73.7506 20.7169 73.8563 21.0447 74.2142C21.3718 74.5756 21.4353 75.0505 21.1859 75.2797M22.8737 78.1581C22.567 78.3764 22.0659 78.1717 21.7565 77.7158C21.4502 77.2602 21.4502 76.7134 21.7631 76.4943C22.0737 76.2752 22.567 76.4722 22.8807 76.9245C23.1866 77.3881 23.1866 77.9349 22.8733 78.1585M25.7269 81.4924C25.4528 81.802 24.8693 81.7192 24.4419 81.2962C24.005 80.8829 23.8831 80.2963 24.1579 79.9863C24.4352 79.6759 25.0222 79.7631 25.4528 80.1825C25.8869 80.595 26.0194 81.186 25.7273 81.4924M29.4146 82.6182C29.2942 83.0195 28.7319 83.202 28.1656 83.0315C27.6002 82.8558 27.23 82.3854 27.3441 81.9797C27.4617 81.5756 28.0264 81.3855 28.597 81.568C29.1617 81.7429 29.5327 82.2097 29.415 82.6182M33.6121 83.0955C33.6262 83.5184 33.1459 83.869 32.5514 83.8767C31.9534 83.8899 31.4698 83.5478 31.4636 83.132C31.4636 82.705 31.933 82.3577 32.5306 82.3476C33.1251 82.3355 33.6121 82.6753 33.6121 83.0955M37.7351 82.9334C37.8065 83.3459 37.3932 83.7697 36.803 83.8823C36.2226 83.9909 35.6854 83.7363 35.6113 83.3274C35.5391 82.9045 35.9603 82.4811 36.5395 82.3713C37.1308 82.266 37.6598 82.5141 37.7351 82.9334" fill="black"/>
</svg>
