<svg width="100" height="100" viewBox="0 0 100 100" fill="none" xmlns="http://www.w3.org/2000/svg">
<path d="M86.3636 0H13.6364C6.10521 0 0 6.10521 0 13.6364V86.3636C0 93.8948 6.10521 100 13.6364 100H86.3636C93.8948 100 100 93.8948 100 86.3636V13.6364C100 6.10521 93.8948 0 86.3636 0Z" fill="black"/>
<path d="M36.0228 27.2727C36.0228 28.9584 35.5229 30.6061 34.5864 32.0077C33.6499 33.4093 32.3189 34.5016 30.7615 35.1467C29.2042 35.7918 27.4906 35.9605 25.8373 35.6317C24.1841 35.3028 22.6655 34.4911 21.4735 33.2992C20.2816 32.1073 19.4699 30.5887 19.1411 28.9354C18.8122 27.2822 18.981 25.5685 19.6261 24.0112C20.2711 22.4539 21.3635 21.1228 22.7651 20.1863C24.1666 19.2498 25.8144 18.75 27.5 18.75C29.7604 18.75 31.9282 19.6479 33.5265 21.2462C35.1248 22.8446 36.0228 25.0124 36.0228 27.2727Z" fill="white"/>
<path d="M34.0909 41.4773V79.1307C34.0924 79.4085 34.039 79.6838 33.9337 79.9408C33.8285 80.1979 33.6734 80.4316 33.4775 80.6286C33.2816 80.8255 33.0488 80.9818 32.7923 81.0885C32.5358 81.1951 32.2607 81.25 31.983 81.25H23C22.7222 81.2508 22.447 81.1966 22.1903 81.0906C21.9335 80.9847 21.7002 80.829 21.5038 80.6326C21.3073 80.4362 21.1517 80.2029 21.0457 79.9461C20.9398 79.6893 20.8856 79.4141 20.8864 79.1364V41.4773C20.8864 40.9167 21.109 40.3791 21.5054 39.9827C21.9018 39.5863 22.4394 39.3636 23 39.3636H31.983C32.5425 39.3651 33.0787 39.5885 33.4738 39.9847C33.869 40.3809 34.0909 40.9177 34.0909 41.4773V41.4773Z" fill="white"/>
<path d="M81.0455 61.0796V79.3068C81.0462 79.5622 80.9965 79.8152 80.8991 80.0513C80.8017 80.2874 80.6586 80.5019 80.478 80.6825C80.2974 80.8631 80.0829 81.0062 79.8468 81.1036C79.6107 81.201 79.3577 81.2508 79.1023 81.25H69.4432C69.1878 81.2508 68.9348 81.201 68.6987 81.1036C68.4626 81.0062 68.2481 80.8631 68.0675 80.6825C67.8869 80.5019 67.7438 80.2874 67.6464 80.0513C67.549 79.8152 67.4993 79.5622 67.5 79.3068V61.642C67.5 59.0057 68.2728 50.0966 60.608 50.0966C54.6705 50.0966 53.4603 56.1932 53.2216 58.9318V79.3068C53.2217 79.8173 53.0209 80.3073 52.6626 80.6709C52.3043 81.0345 51.8173 81.2425 51.3068 81.25H41.9773C41.7224 81.25 41.47 81.1997 41.2345 81.102C40.9991 81.0043 40.7853 80.861 40.6053 80.6805C40.4253 80.5 40.2827 80.2857 40.1857 80.05C40.0886 79.8143 40.0391 79.5617 40.0398 79.3068V41.3125C40.0391 41.0576 40.0886 40.805 40.1857 40.5693C40.2827 40.3336 40.4253 40.1193 40.6053 39.9388C40.7853 39.7583 40.9991 39.6151 41.2345 39.5173C41.47 39.4196 41.7224 39.3693 41.9773 39.3693H51.3068C51.8222 39.3693 52.3165 39.574 52.6809 39.9385C53.0453 40.3029 53.25 40.7971 53.25 41.3125V44.5966C55.4546 41.2898 58.7216 38.7386 65.6932 38.7386C81.1364 38.7386 81.0455 53.1591 81.0455 61.0796V61.0796Z" fill="white"/>
</svg>
