<svg width="100" height="100" viewBox="0 0 100 100" fill="none" xmlns="http://www.w3.org/2000/svg">
<rect width="100" height="100" fill="white"/>
<path d="M99.026 41.1319C98.7478 40.9 96.2433 38.9985 90.8633 38.9985C89.4719 38.9985 88.0341 39.1376 86.6427 39.3695C85.6224 32.2735 79.7322 28.8414 79.5003 28.6559L78.0626 27.821L77.135 29.166C75.9755 30.9748 75.0943 33.0155 74.5841 35.1026C73.6101 39.1376 74.2131 42.9407 76.2538 46.1873C73.7957 47.5786 69.807 47.9033 68.9722 47.9497H3.11347C1.39743 47.9497 0.0060533 49.3411 0.0060533 51.0571C-0.0867055 56.8081 0.887262 62.5592 2.88158 67.9856C5.15416 73.9221 8.53986 78.3282 12.8995 81.0182C17.8157 84.0328 25.8394 85.7489 34.8833 85.7489C38.9647 85.7489 43.0461 85.3779 47.0811 84.6358C52.693 83.6154 58.073 81.6675 63.0356 78.8384C67.117 76.473 70.781 73.4583 73.8884 69.9335C79.1293 64.0433 82.2367 57.4575 84.5093 51.6137C84.8339 51.6137 85.1122 51.6137 85.4369 51.6137C91.1415 51.6137 94.6664 49.3411 96.6143 47.3931C97.9129 46.1873 98.8869 44.7031 99.5826 43.0335L100 41.8276L99.026 41.1319Z" fill="#0091E2"/>
<path d="M9.23572 46.0481H18.0478C18.4652 46.0481 18.8362 45.7235 18.8362 45.2597V37.3752C18.8362 36.9578 18.5116 36.5867 18.0478 36.5867H9.23572C8.8183 36.5867 8.44727 36.9114 8.44727 37.3752V45.2597C8.49365 45.7235 8.8183 46.0481 9.23572 46.0481Z" fill="#0091E2"/>
<path d="M21.3871 46.0481H30.1992C30.6166 46.0481 30.9876 45.7235 30.9876 45.2597V37.3752C30.9876 36.9578 30.663 36.5867 30.1992 36.5867H21.3871C20.9697 36.5867 20.5986 36.9114 20.5986 37.3752V45.2597C20.645 45.7235 20.9697 46.0481 21.3871 46.0481Z" fill="#0091E2"/>
<path d="M33.7704 46.0481H42.5825C42.9999 46.0481 43.3709 45.7235 43.3709 45.2597V37.3752C43.3709 36.9578 43.0463 36.5867 42.5825 36.5867H33.7704C33.353 36.5867 32.9819 36.9114 32.9819 37.3752V45.2597C32.9819 45.7235 33.3066 46.0481 33.7704 46.0481Z" fill="#0091E2"/>
<path d="M45.9681 46.0481H54.7802C55.1976 46.0481 55.5687 45.7235 55.5687 45.2597V37.3752C55.5687 36.9578 55.244 36.5867 54.7802 36.5867H45.9681C45.5507 36.5867 45.1797 36.9114 45.1797 37.3752V45.2597C45.1797 45.7235 45.5507 46.0481 45.9681 46.0481Z" fill="#0091E2"/>
<path d="M21.3871 34.7779H30.1992C30.6166 34.7779 30.9876 34.4069 30.9876 33.9895V26.105C30.9876 25.6876 30.663 25.3165 30.1992 25.3165H21.3871C20.9697 25.3165 20.5986 25.6412 20.5986 26.105V33.9895C20.645 34.4069 20.9697 34.7779 21.3871 34.7779Z" fill="#0091E2"/>
<path d="M33.7704 34.7779H42.5825C42.9999 34.7779 43.3709 34.4069 43.3709 33.9895V26.105C43.3709 25.6876 43.0463 25.3165 42.5825 25.3165H33.7704C33.353 25.3165 32.9819 25.6412 32.9819 26.105V33.9895C32.9819 34.4069 33.3066 34.7779 33.7704 34.7779Z" fill="#0091E2"/>
<path d="M45.9681 34.7779H54.7802C55.1976 34.7779 55.5687 34.4069 55.5687 33.9895V26.105C55.5687 25.6876 55.1976 25.3165 54.7802 25.3165H45.9681C45.5507 25.3165 45.1797 25.6412 45.1797 26.105V33.9895C45.1797 34.4069 45.5507 34.7779 45.9681 34.7779Z" fill="#0091E2"/>
<path d="M45.9681 23.4614H54.7802C55.1976 23.4614 55.5687 23.1367 55.5687 22.673V14.7885C55.5687 14.371 55.1976 14 54.7802 14H45.9681C45.5507 14 45.1797 14.3247 45.1797 14.7885V22.673C45.1797 23.0904 45.5507 23.4614 45.9681 23.4614Z" fill="#0091E2"/>
<path d="M58.2592 46.0481H67.0712C67.4886 46.0481 67.8597 45.7235 67.8597 45.2597V37.3752C67.8597 36.9578 67.535 36.5867 67.0712 36.5867H58.2592C57.8417 36.5867 57.4707 36.9114 57.4707 37.3752V45.2597C57.5171 45.7235 57.8417 46.0481 58.2592 46.0481Z" fill="#0091E2"/>
</svg>
