<svg width="100" height="100" viewBox="0 0 100 100" fill="none" xmlns="http://www.w3.org/2000/svg">
<path d="M100 77.4959C96.3625 78.4206 94.1125 77.5365 92.0938 74.5061L77.7375 54.6491L75.6625 51.8999L58.8969 74.5717C56.9813 77.299 54.9719 78.4862 51.3969 77.5209L72.8656 48.7101L52.8781 22.6861C56.3156 22.0175 58.6906 22.3581 60.8 25.4353L75.6906 45.5391L90.6906 25.5447C92.6125 22.8173 94.6781 21.7801 98.1281 22.7861L90.3781 33.0582L79.8781 46.7263C78.6281 48.2884 78.8 49.3568 79.95 50.8658L100 77.4959ZM0.025 48.229L1.78125 39.5939C6.5625 22.5049 26.1563 15.4038 39.6688 25.9633C47.5656 32.1741 49.5281 40.9592 49.1375 50.8002H4.625C3.95625 68.514 16.7094 79.2048 32.9688 73.75C38.6719 71.8349 42.0312 67.3706 43.7125 61.7846C44.5656 58.9854 45.9781 58.548 48.6094 59.3478C47.2656 66.3334 44.2344 72.1692 37.8281 75.8213C28.2562 81.2886 14.5937 79.5203 7.40625 71.9224C3.125 67.5143 1.35625 61.9283 0.5625 55.955C0.4375 54.9678 0.1875 54.0274 0 53.0808C0.0166667 51.4646 0.025 49.8484 0.025 48.2321V48.229ZM4.70625 47.0418H44.9313C44.6688 34.2329 36.6906 25.1354 25.7875 25.0573C13.8187 24.9636 5.225 33.8455 4.70625 47.0418Z" fill="black"/>
</svg>
