<svg width="100" height="100" viewBox="0 0 100 100" fill="none" xmlns="http://www.w3.org/2000/svg">
<g clip-path="url(#clip0_201_92)">
<rect width="100" height="100" fill="white"/>
<path d="M95.5773 45.7814L54.2176 4.4237C51.8361 2.04122 47.9732 2.04122 45.5897 4.4237L37.0021 13.0134L47.8959 23.9072C50.4279 23.0515 53.331 23.6258 55.3485 25.6443C57.3784 27.6752 57.9474 30.6031 57.0701 33.1443L67.5712 43.6443C70.1124 42.768 73.0423 43.335 75.0712 45.367C77.9062 48.202 77.9062 52.7959 75.0712 55.633C72.234 58.4691 67.6402 58.4691 64.8021 55.633C62.6701 53.499 62.1423 50.3649 63.2237 47.7381L53.4299 37.9453V63.7154C54.1206 64.0577 54.7732 64.5134 55.3485 65.0886C58.1835 67.9237 58.1835 72.5175 55.3485 75.3557C52.5134 78.1897 47.9165 78.1897 45.0835 75.3557C42.2485 72.5165 42.2485 67.9227 45.0835 65.0886C45.7846 64.3886 46.5959 63.8587 47.4619 63.5041V37.4938C46.5959 37.1392 45.7866 36.6144 45.0835 35.9093C42.9361 33.7629 42.4196 30.6103 43.5206 27.9732L32.7815 17.2319L4.42064 45.5897C2.03817 47.9742 2.03817 51.8371 4.42064 54.2196L45.7825 95.5783C48.1639 97.9608 52.0258 97.9608 54.4103 95.5783L95.5773 54.4113C97.9598 52.0288 97.9598 48.1639 95.5773 45.7814Z" fill="#F05133"/>
</g>
<defs>
<clipPath id="clip0_201_92">
<rect width="100" height="100" fill="white"/>
</clipPath>
</defs>
</svg>
