<svg width="100" height="100" viewBox="0 0 100 100" fill="none" xmlns="http://www.w3.org/2000/svg">
<path d="M49.6628 2.39014C48.8032 2.43339 47.961 2.64627 47.1856 3.01629L13.3826 19.1492C12.5077 19.5665 11.739 20.1738 11.1335 20.9259C10.528 21.6779 10.1013 22.5555 9.88514 23.4933L1.5457 59.7319C1.35313 60.5668 1.33158 61.4315 1.48232 62.2749C1.63307 63.1182 1.95304 63.923 2.42331 64.6417C2.53734 64.8174 2.65998 64.9874 2.79078 65.1513L26.1879 94.2086C26.7935 94.9605 27.5623 95.5676 28.4373 95.9847C29.3122 96.4018 30.2707 96.6184 31.2417 96.6182L68.7627 96.6095C69.7333 96.6102 70.6916 96.3944 71.5665 95.978C72.4414 95.5616 73.2104 94.9554 73.8165 94.2043L97.2049 65.1426C97.8109 64.3904 98.2379 63.5125 98.4542 62.5742C98.6705 61.636 98.6705 60.6615 98.4543 59.7232L90.1019 23.4847C89.8858 22.5468 89.4591 21.6693 88.8536 20.9172C88.2481 20.1651 87.4794 19.5579 86.6045 19.1405L52.7971 3.01629C51.8218 2.55084 50.744 2.33554 49.6628 2.39014Z" fill="#326CE5"/>
<path d="M49.9976 14.7226C48.8803 14.7227 47.9743 15.728 47.9744 16.9681C47.9744 16.9871 47.9783 17.0053 47.9787 17.0242C47.9771 17.1927 47.9689 17.3957 47.9744 17.5424C48.001 18.2576 48.1571 18.805 48.2511 19.464C48.4213 20.8744 48.5639 22.0435 48.4759 23.1302C48.3903 23.54 48.0881 23.9147 47.8188 24.1752L47.7712 25.0302C46.557 25.1307 45.3347 25.3147 44.1138 25.5916C38.8603 26.783 34.3371 29.486 30.8935 33.1355C30.67 32.9832 30.2791 32.7031 30.1628 32.6173C29.8016 32.6661 29.4365 32.7774 28.961 32.5007C28.0556 31.892 27.2309 31.0516 26.2331 30.0393C25.7758 29.5551 25.4447 29.094 24.9015 28.6273C24.7782 28.5213 24.5899 28.3779 24.4519 28.2689C24.0272 27.9307 23.5263 27.7543 23.0425 27.7377C22.4206 27.7165 21.8218 27.9594 21.43 28.4502C20.7334 29.3229 20.9564 30.6568 21.9272 31.4298C21.937 31.4376 21.9475 31.4437 21.9574 31.4514C22.0908 31.5594 22.2542 31.6978 22.3768 31.7882C22.9532 32.2134 23.4798 32.431 24.0542 32.7685C25.2642 33.5149 26.2674 34.1338 27.0631 34.8801C27.3738 35.2109 27.4281 35.7939 27.4695 36.046L28.118 36.6246C24.6465 41.8429 23.0399 48.2886 23.9893 54.8562L23.142 55.1023C22.9187 55.3904 22.6031 55.8437 22.273 55.9789C21.232 56.3065 20.0603 56.4267 18.6459 56.5748C17.9818 56.63 17.4088 56.5971 16.7047 56.7303C16.5498 56.7596 16.3339 56.8158 16.1643 56.8555C16.1585 56.8568 16.1529 56.8585 16.1471 56.8598C16.1378 56.862 16.1257 56.8665 16.1168 56.8685C14.9243 57.1563 14.1582 58.2511 14.4048 59.3299C14.6515 60.4088 15.8163 61.065 17.016 60.8067C17.0247 60.8047 17.0373 60.8044 17.0463 60.8024C17.0598 60.7993 17.0717 60.7927 17.0852 60.7894C17.2524 60.7528 17.462 60.712 17.6083 60.6729C18.3005 60.4877 18.8018 60.2157 19.424 59.9776C20.7628 59.498 21.8715 59.0974 22.9518 58.9412C23.4029 58.9059 23.8782 59.2193 24.1147 59.3515L24.9966 59.2003C27.0261 65.4853 31.2793 70.5652 36.6649 73.7528L36.2974 74.6337C36.4299 74.9757 36.576 75.4385 36.4773 75.7764C36.0846 76.7936 35.412 77.8672 34.646 79.0642C34.2751 79.6172 33.8955 80.0463 33.5609 80.6792C33.4808 80.8306 33.3788 81.0633 33.3015 81.2233C32.7815 82.3346 33.1629 83.6146 34.1618 84.0949C35.1669 84.5783 36.4146 84.0685 36.9546 82.9549C36.9554 82.9533 36.9581 82.9522 36.9589 82.9506C36.9594 82.9493 36.9583 82.9475 36.9589 82.9463C37.0358 82.7884 37.1448 82.5809 37.2096 82.4324C37.4963 81.7764 37.5917 81.2143 37.7933 80.5799C38.3286 79.2367 38.6227 77.8274 39.3597 76.9492C39.5615 76.7088 39.8904 76.6163 40.2315 76.5251L40.6898 75.696C45.3849 77.4961 50.6403 77.9791 55.8901 76.7885C57.0878 76.5169 58.2439 76.1654 59.3617 75.7435C59.4905 75.9717 59.7298 76.4103 59.794 76.5208C60.1406 76.6334 60.519 76.6916 60.8272 77.1469C61.3786 78.0878 61.7556 79.2009 62.215 80.5453C62.4166 81.1798 62.5162 81.7419 62.8029 82.3979C62.8683 82.5474 62.9767 82.7578 63.0537 82.916C63.5925 84.0332 64.8441 84.5448 65.8508 84.0604C66.8495 83.5798 67.2314 82.2999 66.7111 81.1888C66.6338 81.0287 66.5275 80.7961 66.4474 80.6447C66.1127 80.0118 65.7332 79.5869 65.3622 79.034C64.5962 77.837 63.9609 76.8427 63.5681 75.8255C63.4039 75.3009 63.5958 74.9746 63.7238 74.6337C63.6471 74.546 63.4832 74.0505 63.3866 73.8175C68.9835 70.5166 73.1118 65.2472 75.0505 59.1615C75.3123 59.2026 75.7673 59.283 75.9152 59.3126C76.2194 59.1122 76.4992 58.8506 77.0478 58.8938C78.1281 59.0498 79.2368 59.4506 80.5756 59.9301C81.1978 60.1682 81.6991 60.4446 82.3913 60.6297C82.5376 60.6688 82.7472 60.7053 82.9144 60.742C82.9278 60.7452 82.9398 60.7518 82.9533 60.7549C82.9623 60.7569 82.9749 60.7572 82.9836 60.7592C84.1833 61.0172 85.3484 60.3614 85.5948 59.2824C85.8411 58.2036 85.0754 57.1085 83.8828 56.821C83.7093 56.7816 83.4633 56.7147 83.2948 56.6828C82.5908 56.5496 82.0178 56.5825 81.3537 56.5274C79.9392 56.3793 78.7676 56.2589 77.7266 55.9314C77.3021 55.767 77.0001 55.2625 76.8533 55.0548L76.0362 54.8173C76.4598 51.756 76.3456 48.5699 75.6125 45.382C74.8726 42.1645 73.565 39.2217 71.8211 36.629C72.0307 36.4386 72.4265 36.0885 72.5387 35.9855C72.5715 35.6229 72.5434 35.2427 72.9192 34.8412C73.7148 34.0949 74.7181 33.4761 75.9281 32.7296C76.5025 32.3921 77.0334 32.1745 77.6098 31.7494C77.7402 31.6532 77.9182 31.501 78.0551 31.391C79.0257 30.6176 79.2491 29.2839 78.5523 28.4114C77.8555 27.5389 76.5052 27.4567 75.5347 28.23C75.3966 28.3393 75.2091 28.4819 75.0851 28.5884C74.5419 29.0552 74.2064 29.5162 73.7492 30.0005C72.7514 31.0128 71.9267 31.8574 71.0213 32.4662C70.629 32.6943 70.0543 32.6154 69.7935 32.6001L69.024 33.1485C64.6359 28.5524 58.6615 25.614 52.2284 25.0432C52.2104 24.7739 52.1868 24.2871 52.1809 24.1406C51.9175 23.8889 51.5993 23.674 51.5194 23.1302C51.4314 22.0435 51.5783 20.8744 51.7485 19.464C51.8425 18.805 51.9986 18.2576 52.0252 17.5424C52.0313 17.3798 52.0216 17.1439 52.0209 16.9681C52.0208 15.728 51.115 14.7225 49.9977 14.7226H49.9976ZM47.4643 30.3978L46.8633 40.999L46.8201 41.0206C46.7798 41.969 45.9984 42.7263 45.0389 42.7263C44.6459 42.7263 44.2832 42.6002 43.9884 42.3852L43.9711 42.3938L35.2685 36.2317C37.9432 33.6047 41.3643 31.6633 45.307 30.7691C46.0272 30.6058 46.7471 30.4846 47.4643 30.3978ZM52.5354 30.3978C57.1385 30.9632 61.3955 33.0452 64.6576 36.236L56.0112 42.3592L55.9809 42.3463C55.2135 42.9062 54.1322 42.7673 53.534 42.0181C53.289 41.7112 53.1604 41.3504 53.1449 40.9861L53.1363 40.9817L52.5354 30.3978ZM32.1126 40.1915L40.0586 47.2907L40.05 47.3338C40.7672 47.9566 40.873 49.0374 40.2748 49.7866C40.0298 50.0935 39.7018 50.2994 39.3496 50.3955L39.341 50.43L29.1555 53.3664C28.6371 48.6315 29.7544 44.0289 32.1126 40.1915ZM67.8265 40.1958C69.0071 42.1072 69.9011 44.2421 70.4334 46.5566C70.9592 48.8433 71.0912 51.1259 70.8743 53.3319L60.637 50.3868L60.6284 50.3436C59.7116 50.0934 59.1483 49.1619 59.3617 48.2277C59.4491 47.845 59.6525 47.5212 59.928 47.282L59.9237 47.2604L67.8265 40.1958H67.8265ZM48.3678 47.8391H51.6232L53.6464 50.3652L52.9201 53.5175L49.9976 54.921L47.0665 53.5132L46.3402 50.3609L48.3678 47.8391ZM58.804 56.4842C58.9423 56.4772 59.0801 56.4896 59.2147 56.5144L59.232 56.4928L69.7676 58.2719C68.2257 62.5988 65.2752 66.3474 61.333 68.8559L57.2433 58.9887L57.2563 58.9715C56.8806 58.0995 57.2565 57.077 58.1209 56.6612C58.3422 56.5547 58.5734 56.4958 58.804 56.4842H58.804ZM41.1092 56.5273C41.9132 56.5386 42.6343 57.096 42.8211 57.9135C42.9086 58.2962 42.866 58.6754 42.7217 59.0103L42.752 59.0492L38.7055 68.817C34.9222 66.3921 31.9088 62.7613 30.2969 58.3065L40.7417 56.536L40.759 56.5576C40.8758 56.5361 40.9943 56.5257 41.1092 56.5273V56.5273ZM49.9328 60.8067C50.2129 60.7964 50.497 60.8538 50.7672 60.9838C51.1213 61.1541 51.3948 61.4222 51.567 61.7438H51.6059L56.7548 71.0366C56.0866 71.2603 55.3996 71.4516 54.697 71.6109C50.7591 72.504 46.8338 72.2334 43.2794 71.0236L48.4154 61.7481H48.424C48.7322 61.1726 49.3167 60.8293 49.9328 60.8067Z" fill="white" stroke="white" stroke-width="0.25"/>
</svg>
