<svg width="100" height="100" viewBox="0 0 100 100" fill="none" xmlns="http://www.w3.org/2000/svg">
<rect width="100" height="100" fill="white"/>
<path d="M50.1455 0.273132L52.814 5.28526C53.414 6.21019 54.064 7.02888 54.8295 7.79132C57.074 10.0078 59.1661 12.3734 61.0916 14.872C65.6131 20.8091 68.6629 27.4023 70.8408 34.5331C72.147 38.889 72.8563 43.3574 72.9094 47.8758C73.1281 61.3842 68.4972 72.9833 59.1604 82.6232C57.6417 84.1519 56.001 85.5543 54.2546 86.8166C53.3296 86.8166 52.8922 86.1073 52.5109 85.4542C51.8167 84.2432 51.3547 82.9133 51.1485 81.5327C50.8204 79.8984 50.6048 78.2642 50.7111 76.5768V75.8143C50.6361 75.6519 49.8205 0.657479 50.1455 0.273132V0.273132Z" fill="#599636"/>
<path d="M50.1455 0.107501C50.0361 -0.111232 49.9267 0.0543803 49.8174 0.160622C49.8705 1.25429 49.4893 2.22922 48.8924 3.1604C48.2362 4.08533 47.3675 4.79465 46.4957 5.55709C41.6523 9.75053 37.8401 14.8158 34.7872 20.481C30.725 28.1054 28.6314 36.2767 28.0377 44.8791C27.7659 47.982 29.0189 58.9312 29.997 62.0904C32.6655 70.4772 37.4589 77.5048 43.6678 83.6044C45.1927 85.073 46.8238 86.4354 48.5112 87.7447C49.0018 87.7447 49.0549 87.3072 49.1674 86.9822C49.3825 86.2869 49.5465 85.5767 49.658 84.8574L50.7517 76.6893L50.1455 0.107501Z" fill="#6CAC48"/>
<path d="M52.814 90.1351C52.9234 88.8852 53.5234 87.8478 54.1764 86.8135C53.5202 86.5417 53.0328 86.0011 52.6515 85.398C52.3228 84.827 52.0507 84.2252 51.8391 83.6012C51.0767 81.3139 50.9142 78.9141 50.6954 76.5768V75.1613C50.4236 75.38 50.3673 77.2299 50.3673 77.5048C50.2083 79.9752 49.8805 82.4318 49.3862 84.8574C49.2237 85.8386 49.1143 86.8166 48.5112 87.6884C48.5112 87.7978 48.5112 87.9072 48.5644 88.0697C49.5455 90.9569 49.8143 93.8974 49.9799 96.894V97.9877C49.9799 99.2938 49.9267 99.0188 51.011 99.4563C51.4485 99.6188 51.936 99.675 52.3734 100C52.7015 100 52.7547 99.7282 52.7547 99.5094L52.5922 97.7127V92.7006C52.5391 91.8256 52.7015 90.957 52.8109 90.1383L52.814 90.1351Z" fill="#C2BFBF"/>
</svg>
