<svg width="100" height="100" viewBox="0 0 100 100" fill="none" xmlns="http://www.w3.org/2000/svg">
<rect width="100" height="100" fill="white"/>
<g clip-path="url(#clip0_201_17)">
<path d="M45.9494 1.26951C48.3964 -0.14361 51.5837 -0.149993 54.0287 1.26951C66.3289 8.28157 78.633 15.2826 90.9311 22.2989C93.2442 23.6135 94.7915 26.2107 94.7679 28.8997V71.0869C94.7852 73.8873 93.085 76.5465 90.6447 77.8312C78.3848 84.8046 66.1314 91.7865 53.8736 98.7599C51.376 100.201 48.1247 100.09 45.7051 98.5309C42.0296 96.3812 38.3478 94.2422 34.672 92.0947C33.9209 91.6429 33.0741 91.2834 32.5437 90.5486C33.0126 89.911 33.8509 89.8316 34.5321 89.5532C36.0663 89.061 37.4754 88.2709 38.8849 87.5043C39.2413 87.2582 39.6764 87.3525 40.0181 87.5727C43.1611 89.3908 46.2763 91.2617 49.4298 93.0624C50.1026 93.4543 50.7837 92.9341 51.3588 92.6107C63.3894 85.7507 75.4348 78.9167 87.4634 72.0546C87.909 71.8383 88.1554 71.361 88.1192 70.8685C88.1277 56.9518 88.1213 43.0326 88.1235 29.116C88.1744 28.5571 87.8539 28.0433 87.353 27.8146C75.1357 20.8731 62.9247 13.9209 50.7096 6.97767C50.4979 6.83088 50.2472 6.75212 49.9904 6.75174C49.7336 6.75136 49.4826 6.82938 49.2706 6.97554C37.0554 13.9209 24.8466 20.8794 12.6314 27.8206C12.1323 28.0497 11.7973 28.555 11.8567 29.116C11.8588 43.0326 11.8567 56.9518 11.8567 70.8706C11.8355 71.1109 11.8878 71.352 12.0066 71.5614C12.1254 71.7708 12.3049 71.9385 12.521 72.0419C15.7807 73.9068 19.0446 75.7585 22.3064 77.617C24.1439 78.6149 26.4001 79.2078 28.4247 78.4433C30.2113 77.7968 31.4636 75.9575 31.4295 74.0436C31.4464 60.2082 31.4211 46.3706 31.4422 32.5372C31.3975 31.9231 31.975 31.4156 32.5669 31.4734C34.1332 31.4628 35.7015 31.4521 37.2677 31.4777C37.9215 31.4628 38.3714 32.1241 38.2905 32.7429C38.2842 46.666 38.3074 60.5894 38.28 74.5124C38.2842 78.2231 36.7732 82.2607 33.3711 84.0763C29.18 86.2667 23.9998 85.8021 19.8593 83.7018C16.2749 81.8968 12.8542 79.7667 9.33339 77.833C6.88669 76.5553 5.19499 73.8855 5.21222 71.0873V28.8997C5.18656 26.155 6.79531 23.5106 9.18049 22.2153C21.4382 15.2362 33.6938 8.25178 45.9494 1.26951Z" fill="#8CC84B"/>
<path d="M56.6429 30.4929C61.989 30.1458 67.7123 30.2872 72.5231 32.9443C76.2478 34.9805 78.3127 39.2539 78.3785 43.4287C78.2744 43.9919 77.6909 44.3025 77.1581 44.2638C75.607 44.2617 74.0555 44.2851 72.5044 44.2532C71.8464 44.2787 71.464 43.6667 71.3814 43.0798C70.9357 41.0823 69.856 39.1039 67.9924 38.1404C65.1317 36.6954 61.8147 36.7681 58.6953 36.7982C56.418 36.9202 53.9692 37.1192 52.0399 38.4702C50.5587 39.4936 50.1088 41.5596 50.6375 43.2234C51.1359 44.4181 52.5028 44.8036 53.6212 45.1589C60.0639 46.8589 66.8912 46.6897 73.2109 48.927C75.8274 49.839 78.3869 51.6121 79.2825 54.3759C80.454 58.0802 79.9405 62.5078 77.3282 65.4816C75.2098 67.9287 72.1245 69.2606 69.0472 69.9841C64.9535 70.905 60.7051 70.9284 56.5477 70.5195C52.6385 70.0699 48.5704 69.0337 45.5525 66.3465C42.9719 64.0858 41.7115 60.5635 41.8366 57.1638C41.8665 56.5897 42.4331 56.1894 42.9782 56.2365C44.5402 56.2238 46.1022 56.2195 47.6642 56.2387C48.2881 56.1936 48.7507 56.7376 48.7827 57.3309C49.0709 59.2341 49.7798 61.2316 51.4248 62.3599C54.5994 64.4263 58.5828 64.2848 62.2179 64.3426C65.2294 64.2078 68.61 64.167 71.0676 62.1589C72.3642 61.0135 72.7484 59.0972 72.3979 57.4486C72.0183 56.0568 70.5751 55.4082 69.3358 54.9841C62.9757 52.9543 56.0721 53.6908 49.7735 51.3954C47.2164 50.4837 44.7437 48.7599 43.7613 46.1096C42.3905 42.3585 43.0187 37.7188 45.9047 34.8454C48.7187 31.9872 52.7808 30.8865 56.6429 30.4926V30.4929Z" fill="#8CC84B"/>
</g>
<defs>
<clipPath id="clip0_201_17">
<rect width="90" height="100" fill="white" transform="translate(5)"/>
</clipPath>
</defs>
</svg>
