<svg width="100" height="100" viewBox="0 0 100 100" fill="none" xmlns="http://www.w3.org/2000/svg">
<rect width="100" height="100" fill="white"/>
<path d="M100 49.5373C100 42.9128 91.704 36.6347 78.9849 32.7415C81.9201 19.7778 80.6156 9.46392 74.8675 6.16184C73.5426 5.38728 71.9935 5.02038 70.3017 5.02038V9.56584C71.2393 9.56584 71.9935 9.74929 72.6254 10.0958C75.3975 11.6857 76.6001 17.7395 75.6625 25.5259C75.4382 27.4419 75.0713 29.4598 74.6229 31.5185C70.6278 30.5402 66.2658 29.786 61.6796 29.2968C58.9278 25.5259 56.0742 22.1015 53.2002 19.1052C59.8451 12.9291 66.0823 9.54545 70.3221 9.54545V5C64.7167 5 57.3787 8.99511 49.9592 15.9254C42.5397 9.03588 35.2018 5.08153 29.5964 5.08153V9.62699C33.8157 9.62699 40.0734 12.9902 46.7183 19.1256C43.8647 22.1219 41.011 25.5259 38.3 29.2968C33.6934 29.786 29.3314 30.5402 25.3363 31.5389C24.8675 29.5006 24.521 27.5234 24.2764 25.6278C23.3184 17.8414 24.5006 11.7876 27.2523 10.1773C27.8638 9.81044 28.6588 9.64737 29.5964 9.64737V5.10192C27.8842 5.10192 26.3351 5.46881 24.9898 6.24338C19.2621 9.54545 17.978 19.839 20.9336 32.7619C8.2552 36.6755 0 42.9331 0 49.5373C0 56.1618 8.29596 62.4399 21.0151 66.3331C18.0799 79.2968 19.3844 89.6107 25.1325 92.9128C26.4574 93.6873 28.0065 94.0542 29.7187 94.0542C35.3241 94.0542 42.662 90.0591 50.0815 83.1288C57.501 90.0183 64.839 93.9727 70.4443 93.9727C72.1565 93.9727 73.7057 93.6058 75.051 92.8312C80.7786 89.5291 82.0628 79.2356 79.1072 66.3127C91.7448 62.4195 100 56.1415 100 49.5373V49.5373ZM73.4611 35.9417C72.7069 38.5711 71.7693 41.2821 70.7093 43.9931C69.8736 42.3624 68.9971 40.7318 68.0391 39.1011C67.1015 37.4704 66.1027 35.8806 65.104 34.3314C67.9984 34.7595 70.7909 35.2894 73.4611 35.9417ZM64.1256 57.6498C62.5357 60.4015 60.905 63.0106 59.2132 65.4362C56.1761 65.7012 53.0982 65.8439 50 65.8439C46.9221 65.8439 43.8443 65.7012 40.8276 65.4566C39.1358 63.031 37.4847 60.4423 35.8948 57.711C34.3457 55.0408 32.9393 52.3298 31.6551 49.5984C32.9189 46.8671 34.3457 44.1357 35.8744 41.4655C37.4643 38.7138 39.095 36.1048 40.7868 33.6792C43.8239 33.4142 46.9018 33.2715 50 33.2715C53.0779 33.2715 56.1557 33.4142 59.1724 33.6588C60.8642 36.0844 62.5153 38.6731 64.1052 41.4044C65.6543 44.0746 67.0607 46.7856 68.3449 49.5169C67.0607 52.2483 65.6543 54.9796 64.1256 57.6498ZM70.7093 55C71.81 57.7313 72.7477 60.4627 73.5222 63.1125C70.852 63.7648 68.0391 64.3151 65.1243 64.7432C66.1231 63.1737 67.1219 61.5634 68.0595 59.9123C68.9972 58.2817 69.8736 56.6307 70.7093 55ZM50.0408 76.7489C48.1451 74.7921 46.2495 72.6111 44.3742 70.2262C46.2087 70.3078 48.084 70.3689 49.9796 70.3689C51.8956 70.3689 53.7913 70.3282 55.6461 70.2262C53.8117 72.6111 51.916 74.7921 50.0408 76.7489ZM34.8757 64.7432C31.9812 64.3151 29.1887 63.7852 26.5185 63.1329C27.2727 60.5035 28.2104 57.7925 29.2703 55.0815C30.106 56.7122 30.9825 58.3428 31.9405 59.9735C32.8985 61.6042 33.8769 63.194 34.8757 64.7432ZM49.9389 22.3257C51.8345 24.2825 53.7301 26.4635 55.6054 28.8483C53.7709 28.7668 51.8956 28.7057 50 28.7057C48.084 28.7057 46.1883 28.7464 44.3335 28.8483C46.168 26.4635 48.0636 24.2825 49.9389 22.3257ZM34.8553 34.3314C33.8565 35.9009 32.8577 37.5112 31.9201 39.1622C30.9825 40.7929 30.106 42.4236 29.2703 44.0542C28.1696 41.3229 27.232 38.5915 26.4574 35.9417C29.1276 35.3098 31.9405 34.7595 34.8553 34.3314V34.3314ZM16.4085 59.8512C9.19283 56.7733 4.52507 52.7375 4.52507 49.5373C4.52507 46.3371 9.19283 42.2809 16.4085 39.2234C18.1614 38.4692 20.0775 37.7966 22.0546 37.1647C23.2165 41.1598 24.7452 45.318 26.6408 49.5781C24.7656 53.8178 23.2572 57.9556 22.1158 61.9303C20.0978 61.2984 18.1818 60.6054 16.4085 59.8512ZM27.3746 88.9788C24.6025 87.3889 23.3999 81.3351 24.3375 73.5487C24.5618 71.6327 24.9287 69.6148 25.3771 67.556C29.3722 68.5344 33.7342 69.2886 38.3204 69.7778C41.0722 73.5487 43.9258 76.9731 46.7998 79.9694C40.1549 86.1455 33.9177 89.5291 29.6779 89.5291C28.7607 89.5088 27.9861 89.3253 27.3746 88.9788V88.9788ZM75.7236 73.4468C76.6816 81.2332 75.4994 87.287 72.7476 88.8973C72.1362 89.2642 71.3412 89.4272 70.4036 89.4272C66.1843 89.4272 59.9266 86.064 53.2817 79.9287C56.1354 76.9323 58.989 73.5283 61.7 69.7574C66.3066 69.2682 70.6686 68.5141 74.6637 67.5153C75.1325 69.574 75.4994 71.5512 75.7236 73.4468V73.4468ZM83.5711 59.8512C81.8182 60.6054 79.9022 61.278 77.925 61.9099C76.7631 57.9148 75.2344 53.7566 73.3388 49.4965C75.214 45.2568 76.7224 41.119 77.8638 37.1443C79.8818 37.7762 81.7978 38.4692 83.5915 39.2234C90.8072 42.3013 95.4749 46.3371 95.4749 49.5373C95.4545 52.7375 90.7868 56.7937 83.5711 59.8512V59.8512Z" fill="#61DAFB"/>
<path d="M49.9797 58.8524C55.1243 58.8524 59.2948 54.6819 59.2948 49.5373C59.2948 44.3927 55.1243 40.2222 49.9797 40.2222C44.8351 40.2222 40.6646 44.3927 40.6646 49.5373C40.6646 54.6819 44.8351 58.8524 49.9797 58.8524Z" fill="#61DAFB"/>
</svg>
