<svg width="100" height="100" viewBox="0 0 100 100" fill="none" xmlns="http://www.w3.org/2000/svg">
<rect width="100" height="100" fill="white"/>
<g clip-path="url(#clip0_201_93)">
<path d="M86.0546 55.0859C82.5585 55.1057 79.5311 55.9453 76.9921 57.1955C76.0546 55.34 75.1171 53.7188 74.961 52.508C74.7852 51.1018 74.5704 50.2422 74.7852 48.5627C74.9999 46.8828 75.9765 44.5 75.9765 44.3047C75.9567 44.1289 75.7614 43.2695 73.7499 43.25C71.7384 43.2305 69.9999 43.6406 69.8046 44.168C69.6093 44.6953 69.2186 45.9063 68.9647 47.1563C68.6132 48.9922 64.9413 55.4961 62.8514 58.9141C62.1679 57.5859 61.5819 56.4141 61.4645 55.4764C61.289 54.0703 61.0739 53.2107 61.2889 51.5313C61.5038 49.8514 62.4804 47.4688 62.4804 47.2734C62.4608 47.0977 62.2655 46.2383 60.254 46.2188C58.2421 46.1992 56.504 46.6094 56.3087 47.1367C56.1134 47.6641 55.8985 48.9141 55.4688 50.125C55.0585 51.3359 50.1757 62.1953 48.9061 65.0273C48.2616 66.4727 47.6954 67.625 47.285 68.4063C46.8749 69.1875 47.2655 68.4648 47.2265 68.543C46.8749 69.207 46.6796 69.5781 46.6796 69.5781V69.5979C46.4061 70.0861 46.1132 70.5547 45.9763 70.5547C45.8786 70.5547 45.6833 69.2461 46.0153 67.4494C46.738 63.6797 48.4958 57.801 48.4765 57.5861C48.4765 57.4885 48.8083 56.4531 47.3434 55.926C45.9177 55.3986 45.41 56.2775 45.2927 56.2775C45.1755 56.2775 45.0778 56.59 45.0778 56.59C45.0778 56.59 46.6598 49.9691 42.0505 49.9691C39.1598 49.9691 35.1755 53.1137 33.2028 55.9848C31.9528 56.6684 29.2966 58.1135 26.4841 59.6566C25.4098 60.2426 24.2966 60.8676 23.2419 61.434L23.0272 61.1992C17.4413 55.2422 7.10926 51.0234 7.53895 43.0156C7.6952 40.1055 8.71082 32.4297 27.3829 23.1328C42.6759 15.5156 54.922 17.6055 57.0507 22.2539C60.078 28.8945 50.5077 41.2383 34.6095 43.0156C28.5548 43.6992 25.371 41.3555 24.5704 40.4766C23.7306 39.5586 23.6134 39.5195 23.3009 39.6953C22.7931 39.9688 23.1056 40.7891 23.3009 41.2773C23.7696 42.5078 25.7227 44.6953 29.0431 45.7891C31.953 46.7461 39.0626 47.2734 47.6563 43.9531C57.2852 40.2227 64.8048 29.8711 62.5977 21.2188C60.3516 12.4102 45.7423 9.51953 31.9337 14.4219C23.7108 17.3516 14.8046 21.9219 8.39832 27.918C0.781136 35.0273 -0.429802 41.2383 0.0780107 43.8164C1.85555 53.0156 14.5311 59.0117 19.6093 63.4453C19.3554 63.5818 19.121 63.7186 18.9061 63.8359C16.3671 65.0857 6.6991 70.1445 4.27723 75.4959C1.54285 81.5506 4.70692 85.9063 6.81629 86.4922C13.3397 88.3086 20.0194 85.0469 23.6327 79.6758C27.2263 74.3047 26.7968 67.332 25.1366 64.1484L25.0778 64.0313L27.07 62.8594C28.3593 62.0977 29.6288 61.3945 30.7419 60.7889C30.1171 62.4881 29.6677 64.4998 29.4335 67.4295C29.16 70.8672 30.5663 75.3201 32.4218 77.0779C33.2421 77.8395 34.2186 77.8592 34.8241 77.8592C36.9725 77.8592 37.9491 76.0816 39.0233 73.9529C40.3515 71.3553 41.5233 68.3475 41.5233 68.3475C41.5233 68.3475 40.0585 76.492 44.0624 76.492C45.5272 76.492 46.9921 74.5975 47.6561 73.6209V73.6404C47.6561 73.6404 47.6952 73.5818 47.7733 73.4451C47.8553 73.3239 47.9334 73.2003 48.0077 73.0742V73.0352C48.5936 72.0195 49.9022 69.6953 51.8554 65.8477C54.3747 60.8867 56.7968 54.6758 56.7968 54.6758C56.7968 54.6758 57.0311 56.1992 57.7538 58.6992C58.1833 60.1838 59.1208 61.8047 59.8434 63.3867C59.2575 64.207 58.9059 64.676 58.9059 64.676L58.9255 64.6955C58.4569 65.3205 57.9294 65.9848 57.3827 66.6486C55.3905 69.0314 53.0077 71.7465 52.6952 72.5277C52.3241 73.4455 52.4022 74.1291 53.1249 74.6762C53.6522 75.0668 54.5897 75.1447 55.5858 75.0668C57.3827 74.9494 58.6327 74.5004 59.2577 74.2268C60.2343 73.8752 61.3475 73.3479 62.4218 72.5666C64.3749 71.1215 65.5663 69.0707 65.4491 66.3363C65.3905 64.8324 64.9022 63.348 64.2968 61.9418C64.4725 61.6879 64.6485 61.4338 64.8241 61.1605C67.91 56.6486 70.2929 51.6879 70.2929 51.6879C70.2929 51.6879 70.5272 53.2113 71.2499 55.7113C71.6208 56.9809 72.3632 58.3678 73.0272 59.735C70.1366 62.0982 68.3202 64.8326 67.6952 66.6295C66.5429 69.9498 67.4413 71.4537 69.1405 71.8053C69.902 71.9615 70.996 71.61 71.8161 71.2584C72.8317 70.9264 74.0622 70.3598 75.1952 69.5201C77.1483 68.0748 79.0233 66.0631 78.9257 63.3482C78.8671 62.0982 78.535 60.8678 78.0858 59.6959C80.5468 58.6803 83.7302 58.0943 87.7733 58.5826C96.4647 59.5982 98.1835 65.0279 97.8517 67.2936C97.5196 69.5594 95.7032 70.8092 95.0975 71.1998C94.4921 71.5709 94.2968 71.7078 94.3554 71.9811C94.4335 72.3914 94.7069 72.3717 95.2343 72.2938C95.9569 72.1764 99.8046 70.4383 99.9608 66.2588C100.195 60.8869 95.0975 55.0275 86.0546 55.0859V55.0859ZM19.0233 77.6836C16.1522 80.8281 12.1093 82.0195 10.3905 81.0039C8.53504 79.9297 9.2575 75.3008 12.7929 71.9609C14.9413 69.9297 17.7343 68.0547 19.5702 66.9023C19.9804 66.6484 20.6054 66.2775 21.3475 65.8281C21.4647 65.7502 21.5429 65.7109 21.5429 65.7109C21.6796 65.6328 21.8358 65.5352 21.9921 65.4375C23.3007 70.2031 22.0507 74.3828 19.0233 77.6836V77.6836ZM40.0194 63.4063C39.0233 65.8477 36.914 72.1172 35.6444 71.7656C34.5505 71.4727 33.8866 66.7266 35.4294 62.0391C36.2106 59.6756 37.8708 56.8633 38.8473 55.7693C40.4296 54.0115 42.1481 53.4256 42.578 54.1482C43.0858 55.0859 40.6444 61.8828 40.0194 63.4063ZM57.3436 71.6875C56.914 71.9025 56.5233 72.0586 56.3475 71.9416C56.2108 71.8635 56.5231 71.5705 56.5231 71.5705C56.5231 71.5705 58.6911 69.2463 59.5505 68.1721C60.0388 67.5473 60.6247 66.8246 61.2497 66.0041V66.2385C61.2499 69.0508 58.5546 70.9258 57.3436 71.6875ZM70.7028 68.6406C70.3903 68.4063 70.4296 67.6836 71.4841 65.418C71.8944 64.5195 72.8317 63.0156 74.4528 61.5898C74.6481 62.1758 74.7655 62.742 74.7458 63.2695C74.7265 66.7852 72.2265 68.0938 70.7028 68.6406Z" fill="#CF649A"/>
</g>
<defs>
<clipPath id="clip0_201_93">
<rect width="100" height="75" fill="white" transform="translate(0 12)"/>
</clipPath>
</defs>
</svg>
