<svg width="100" height="100" viewBox="0 0 100 100" fill="none" xmlns="http://www.w3.org/2000/svg">
<g clip-path="url(#clip0_201_89)">
<rect width="100" height="100" fill="white"/>
<g clip-path="url(#clip1_201_89)">
<path d="M0 50V0H100V100H0" fill="#007ACC"/>
<path d="M21.925 50.175V54.25H34.925V91.25H44.1501V54.25H57.1501V50.25C57.1501 48 57.15 46.175 57.05 46.125C57.05 46.05 49.125 46.025 39.5 46.025L22 46.1V50.2L21.925 50.175V50.175ZM80.35 46C82.9 46.6 84.8501 47.75 86.6001 49.575C87.5251 50.575 88.9 52.325 89 52.775C89 52.925 84.6751 55.85 82.0501 57.475C81.9501 57.55 81.5501 57.125 81.1501 56.475C79.8501 54.625 78.525 53.825 76.45 53.675C73.45 53.475 71.45 55.05 71.45 57.675C71.45 58.475 71.6001 58.925 71.9001 59.575C72.5751 60.95 73.825 61.775 77.7 63.475C84.85 66.55 87.95 68.575 89.825 71.475C91.95 74.725 92.425 79.825 91 83.65C89.4 87.825 85.5001 90.65 79.9251 91.575C78.1751 91.875 74.1751 91.825 72.3001 91.5C68.3001 90.75 64.475 88.75 62.125 86.175C61.2 85.175 59.4251 82.5 59.5251 82.325L60.475 81.725L64.225 79.55L67.0501 77.9L67.7 78.775C68.525 80.075 70.375 81.825 71.45 82.425C74.7 84.1 79.05 83.875 81.2 81.925C82.125 81.075 82.5251 80.175 82.5251 78.925C82.5251 77.775 82.3501 77.25 81.7751 76.375C80.9751 75.275 79.375 74.375 74.875 72.375C69.7 70.175 67.5 68.775 65.45 66.625C64.275 65.325 63.2001 63.3 62.7001 61.625C62.3251 60.175 62.2 56.625 62.55 55.2C63.625 50.2 67.4001 46.7 72.8001 45.7C74.5501 45.35 78.6751 45.5 80.4001 45.95L80.35 46V46Z" fill="white"/>
</g>
</g>
<defs>
<clipPath id="clip0_201_89">
<rect width="100" height="100" fill="white"/>
</clipPath>
<clipPath id="clip1_201_89">
<rect width="100" height="100" fill="white"/>
</clipPath>
</defs>
</svg>
