<svg width="100" height="100" viewBox="0 0 100 100" fill="none" xmlns="http://www.w3.org/2000/svg">
<g clip-path="url(#clip0_210_2)">
<path d="M61.4984 36.1197L51.478 45.4313L42.1765 26.6986L46.9816 15.9275C48.1961 13.779 50.1823 13.7506 51.3968 15.9275L61.4984 36.1197Z" fill="#FFA000"/>
<path d="M51.4822 45.4273L14 80.2213L42.1807 26.6985L51.4822 45.4273Z" fill="#F57F17"/>
<path d="M72.4857 21.8785C74.281 20.1719 76.1291 20.7475 76.5962 23.1717L86.3404 79.7511L54.0208 99.1162C52.8875 99.7486 49.8818 99.9959 49.8818 99.9959C49.8818 99.9959 47.1482 99.6635 46.1003 99.0879L14 80.2213L72.4857 21.8785Z" fill="#FFCA28"/>
<path d="M42.1807 26.6985L14 80.2212L26.559 1.99034C27.0302 -0.433849 28.4072 -0.681133 29.6501 1.4674L42.1807 26.6985Z" fill="#FFA000"/>
</g>
<defs>
<clipPath id="clip0_210_2">
<rect width="72.3404" height="100" fill="white" transform="translate(14)"/>
</clipPath>
</defs>
</svg>
