<svg width="100" height="100" viewBox="0 0 100 100" fill="none" xmlns="http://www.w3.org/2000/svg">
<path d="M0.487061 59.6103C0.760598 60.0753 1.1162 60.513 1.58121 60.8412L49.9154 95.9635L1.55386 60.8412C1.1162 60.513 0.733245 60.0753 0.487061 59.6103ZM99.371 59.6103C99.0975 60.0753 98.7419 60.513 98.2769 60.8412L49.9154 95.9635L98.2769 60.8412C98.7145 60.513 99.0975 60.0753 99.371 59.6103ZM22.6983 12.2335L31.5336 39.3958H5.76634H31.5336L43.7881 77.1167L31.5336 39.3958L22.6983 12.2335ZM17.2276 4.62916C17.0635 4.82063 16.9267 5.03946 16.8446 5.313L5.76634 39.3958L3.3045 47.0002L5.76634 39.3958L16.8446 5.313C16.9267 5.03946 17.0635 4.79328 17.2276 4.62916ZM80.4969 4.10944C80.0045 4.30091 79.5669 4.68386 79.3754 5.313L68.2971 39.3958L56.0426 77.1167L68.2971 39.3958H94.0644H68.2971L79.3754 5.313C79.5669 4.71122 80.0045 4.30091 80.4969 4.10944ZM19.3065 4.10944C19.6894 4.2462 20.045 4.51974 20.2912 4.90269C20.045 4.51974 19.6894 4.2462 19.3065 4.10944Z" fill="#FC6D26"/>
<path d="M68.2972 39.3958H31.5337L43.7882 77.1167L49.9154 95.9635L56.0427 77.1167L68.2972 39.3958Z" fill="#E24329"/>
<path d="M31.5336 39.3958H5.76636L49.9154 95.9635L43.7881 77.1167L31.5336 39.3958Z" fill="#FC6D26"/>
<path d="M5.76628 39.3958L3.30444 47.0002L0.186106 56.6013C-0.14214 57.6408 -0.0327227 58.7349 0.486999 59.6376C0.760537 60.1026 1.11614 60.5403 1.58115 60.8685L49.9153 95.9635L5.76628 39.3958Z" fill="#FCA326"/>
<path d="M18.65 4C18.1303 4 17.6105 4.21883 17.2276 4.62914C17.0635 4.82061 16.9267 5.03944 16.8446 5.31298L5.76636 39.3958H31.5336L22.6984 12.2335L20.4553 5.31298C20.4006 5.17621 20.3459 5.03944 20.2639 4.90267C20.0177 4.51972 19.6894 4.24618 19.2791 4.10942C19.0877 4.02735 18.8688 4 18.65 4Z" fill="#E24329"/>
<path d="M94.0645 39.3958H68.2973L56.0428 77.1167L49.9155 95.9635L94.0645 39.3958Z" fill="#FC6D26"/>
<path d="M94.0645 39.3958L49.9155 95.9635L98.277 60.8412C98.742 60.5129 99.0976 60.0753 99.3712 59.6103C99.6721 59.0632 99.8362 58.434 99.8362 57.7776V57.7502C99.8362 57.3673 99.7815 56.9843 99.6447 56.6013L94.0645 39.3958Z" fill="#FCA326"/>
<path d="M81.1807 4C80.9619 4 80.7157 4.02735 80.4969 4.10942C80.0045 4.30089 79.5669 4.68384 79.3754 5.31298L68.2971 39.3958H94.0644L82.9861 5.31298C82.7126 4.43766 81.9467 4 81.1807 4Z" fill="#E24329"/>
</svg>
